<svg width="558" height="558" viewBox="0 0 558 558" fill="none" xmlns="http://www.w3.org/2000/svg">
<path d="M125.394 311.547H66.9492V391.146H125.394V311.547Z" fill="#DB3305"/>
<path d="M78.6663 328.219C81.3781 328.219 83.5767 326.021 83.5767 323.309C83.5767 320.597 81.3781 318.398 78.6663 318.398C75.9544 318.398 73.7559 320.597 73.7559 323.309C73.7559 326.021 75.9544 328.219 78.6663 328.219Z" fill="#F4C0B2"/>
<path d="M78.6663 382.817C81.3781 382.817 83.5767 380.618 83.5767 377.907C83.5767 375.195 81.3781 372.996 78.6663 372.996C75.9544 372.996 73.7559 375.195 73.7559 377.907C73.7559 380.618 75.9544 382.817 78.6663 382.817Z" fill="#F4C0B2"/>
<path d="M349.553 515.397C362.03 511.123 372.593 505.604 381.85 498.456C389.118 492.799 395.623 486.222 401.201 478.893C404.957 474.032 409.248 466.689 413.678 457.438" stroke="white" stroke-width="2.49984" stroke-miterlimit="10"/>
<path d="M450.068 315.777C451.965 289.133 450.793 262.365 444.879 237.931C432.798 188.19 400.997 148.148 335.215 138.824" stroke="white" stroke-width="2.49984" stroke-miterlimit="10"/>
<path d="M147.83 236.637C147.127 231.191 146.401 225.762 145.748 220.349C132.245 110.027 217.652 113.615 217.652 113.615" stroke="white" stroke-width="2.49984" stroke-miterlimit="10"/>
<path d="M114.982 392.273C109.536 396.464 103.822 400.426 98.2808 404.549C83.7338 415.481 73.2768 428.387 68.3274 446.137C62.4851 467.135 65.1244 491.056 80.2351 507.601C95.7642 524.592 119.898 529.625 142.006 529.625H177.16" stroke="white" stroke-width="2.49984" stroke-miterlimit="10"/>
<path d="M77.2051 366.835V335.23C84.3977 335.23 90.2288 330.174 90.2288 323.936V323.082H125.383V378.112H91.847C91.847 371.779 85.8373 366.684 78.5275 366.824L77.2051 366.835Z" fill="#F4C0B2"/>
<path d="M109.318 350.981C109.318 355.346 111.053 359.533 114.139 362.62C117.227 365.707 121.414 367.442 125.779 367.442V334.52C123.618 334.519 121.477 334.944 119.479 335.771C117.482 336.598 115.667 337.811 114.138 339.339C112.609 340.868 111.397 342.683 110.57 344.68C109.743 346.678 109.318 348.819 109.318 350.981Z" fill="#DB3305"/>
<path d="M173.219 520.349H220.895C223.499 520.349 225.61 518.239 225.61 515.634V483.594C225.61 480.99 223.499 478.879 220.895 478.879H173.219C170.615 478.879 168.504 480.99 168.504 483.594V515.634C168.504 518.239 170.615 520.349 173.219 520.349Z" fill="#DB3305"/>
<path d="M145.225 520.352H164.342C165.447 520.352 166.506 519.913 167.288 519.133C168.069 518.353 168.509 517.294 168.511 516.189V486.381C168.513 486.111 168.461 485.843 168.358 485.594C168.255 485.344 168.103 485.118 167.911 484.927C167.719 484.738 167.491 484.588 167.241 484.488C166.99 484.388 166.722 484.339 166.452 484.344L155.816 484.439C155.531 484.445 155.25 484.513 154.992 484.635C154.734 484.759 154.505 484.935 154.321 485.153L141.437 500.403C139.404 502.496 138.263 505.298 138.256 508.215V513.343C138.251 514.262 138.427 515.172 138.775 516.022C139.123 516.872 139.636 517.645 140.283 518.297C140.931 518.948 141.701 519.465 142.549 519.817C143.397 520.17 144.307 520.352 145.225 520.352Z" fill="#DB3305"/>
<path d="M197.062 511.64C203.703 511.64 209.087 506.256 209.087 499.615C209.087 492.974 203.703 487.59 197.062 487.59C190.421 487.59 185.037 492.974 185.037 499.615C185.037 506.256 190.421 511.64 197.062 511.64Z" fill="#F4C0B2"/>
<path d="M163.008 498.689V490.263C163.008 490.014 162.909 489.775 162.734 489.598C162.558 489.422 162.32 489.322 162.071 489.32H157.356C157.212 489.321 157.071 489.355 156.942 489.419C156.814 489.483 156.701 489.575 156.614 489.689L150.102 498.114C149.995 498.254 149.928 498.421 149.911 498.596C149.894 498.771 149.925 498.948 150.003 499.106C150.081 499.264 150.202 499.397 150.351 499.49C150.501 499.583 150.673 499.632 150.849 499.632H162.054C162.179 499.634 162.303 499.61 162.418 499.564C162.534 499.517 162.639 499.447 162.728 499.36C162.817 499.272 162.887 499.168 162.936 499.052C162.984 498.937 163.008 498.814 163.008 498.689Z" fill="#F4C0B2"/>
<path d="M220.751 520.262V520.345C220.781 521.586 220.564 522.82 220.11 523.975C219.656 525.129 218.976 526.182 218.11 527.07C217.243 527.958 216.208 528.664 215.065 529.145C213.921 529.627 212.693 529.875 211.452 529.875C210.212 529.875 208.984 529.627 207.84 529.145C206.697 528.664 205.661 527.958 204.795 527.07C203.928 526.182 203.248 525.129 202.794 523.975C202.341 522.82 202.123 521.586 202.153 520.345" fill="#DB3305"/>
<path d="M164.342 520.348C164.342 522.815 163.362 525.18 161.617 526.925C159.873 528.669 157.507 529.65 155.04 529.65C152.573 529.65 150.207 528.669 148.462 526.925C146.718 525.18 145.738 522.815 145.738 520.348" fill="#DB3305"/>
<path d="M464.686 320.089V447.419C464.679 450.07 463.624 452.61 461.752 454.486C459.88 456.362 457.343 457.422 454.692 457.435H301.365L306.108 432.392C318.942 378.394 323.189 318.811 324.204 301.524C324.115 303.628 324.031 305.732 323.908 307.813C324.394 308.505 324.93 309.175 325.476 309.833C325.705 310.09 325.945 310.346 326.185 310.609C326.425 310.871 326.743 311.195 327.011 311.468C327.201 311.674 327.407 311.864 327.619 312.071L327.859 312.294C328.099 312.523 328.356 312.746 328.618 312.969C328.718 313.069 328.824 313.159 328.942 313.259C329.187 313.449 329.427 313.639 329.667 313.845C329.907 314.052 330.286 314.314 330.599 314.554C330.928 314.794 331.252 315.017 331.581 315.229C331.91 315.441 332.251 315.659 332.596 315.865C332.942 316.071 333.339 316.311 333.712 316.518C333.952 316.641 334.192 316.775 334.438 316.897C334.481 316.923 334.526 316.946 334.572 316.964C335.316 317.336 336.074 317.682 336.848 318.002C337.245 318.158 337.624 318.292 338.02 318.432C338.813 318.705 339.605 318.99 340.436 319.174L341.675 319.464C342.088 319.553 342.518 319.62 342.947 319.687C343.377 319.754 343.779 319.827 344.192 319.877H344.225C344.521 319.916 344.811 319.95 345.09 319.966C345.369 319.983 345.648 320.017 345.916 320.033C345.949 320.033 345.983 320.033 346.016 320.033C346.295 320.067 346.574 320.067 346.848 320.089H347.774C349.744 320.092 351.71 319.89 353.639 319.486C357.751 318.655 361.638 316.952 365.036 314.492C368.435 312.032 371.267 308.871 373.342 305.224C374.629 302.981 375.609 300.575 376.254 298.07C376.345 297.766 376.419 297.457 376.478 297.144C376.955 295.016 377.199 292.842 377.203 290.66C377.204 292.498 377.37 294.332 377.7 296.14C377.839 296.781 377.979 297.434 378.152 298.07C379.792 304.37 383.476 309.947 388.625 313.928C393.775 317.909 400.101 320.068 406.61 320.068C413.119 320.068 419.444 317.909 424.594 313.928C429.744 309.947 433.428 304.37 435.068 298.07C435.366 296.885 435.594 295.683 435.754 294.471C435.915 293.207 435.997 291.935 435.999 290.66C435.997 291.958 436.082 293.253 436.256 294.538C436.407 295.73 436.637 296.91 436.942 298.07C438.56 304.246 442.138 309.729 447.139 313.696C452.14 317.662 458.294 319.898 464.675 320.067L464.686 320.089Z" fill="#F4C0B2"/>
<path d="M476.421 317.969V488.454C476.41 491.102 475.353 493.638 473.482 495.51C471.61 497.382 469.075 498.44 466.428 498.454H294.82C296.076 486.351 298.419 472.563 301.282 457.435H454.693C457.343 457.422 459.881 456.362 461.753 454.486C463.625 452.609 464.679 450.07 464.687 447.419V320.089C464.927 320.089 465.172 320.089 465.412 320.089C465.555 320.098 465.699 320.098 465.842 320.089C469.47 320.051 473.059 319.331 476.421 317.969Z" fill="#DB3305"/>
<path d="M150.969 308.902H150.478C146.574 308.902 143.408 312.067 143.408 315.972V316.463C143.408 320.368 146.574 323.533 150.478 323.533H150.969C154.873 323.533 158.039 320.368 158.039 316.463V315.972C158.039 312.067 154.873 308.902 150.969 308.902Z" fill="#F4C0B2"/>
<path d="M178.098 308.902H177.607C173.703 308.902 170.537 312.067 170.537 315.972V316.463C170.537 320.368 173.703 323.533 177.607 323.533H178.098C182.002 323.533 185.168 320.368 185.168 316.463V315.972C185.168 312.067 182.002 308.902 178.098 308.902Z" fill="#F4C0B2"/>
<path d="M205.229 308.902H204.738C200.834 308.902 197.668 312.067 197.668 315.972V316.463C197.668 320.368 200.834 323.533 204.738 323.533H205.229C209.133 323.533 212.299 320.368 212.299 316.463V315.972C212.299 312.067 209.133 308.902 205.229 308.902Z" fill="#F4C0B2"/>
<path d="M150.969 331.496H150.478C146.574 331.496 143.408 334.662 143.408 338.566V339.057C143.408 342.962 146.574 346.127 150.478 346.127H150.969C154.873 346.127 158.039 342.962 158.039 339.057V338.566C158.039 334.662 154.873 331.496 150.969 331.496Z" fill="#F4C0B2"/>
<path d="M178.098 331.496H177.607C173.703 331.496 170.537 334.662 170.537 338.566V339.057C170.537 342.962 173.703 346.127 177.607 346.127H178.098C182.002 346.127 185.168 342.962 185.168 339.057V338.566C185.168 334.662 182.002 331.496 178.098 331.496Z" fill="#F4C0B2"/>
<path d="M205.229 331.496H204.738C200.834 331.496 197.668 334.662 197.668 338.566V339.057C197.668 342.962 200.834 346.127 204.738 346.127H205.229C209.133 346.127 212.299 342.962 212.299 339.057V338.566C212.299 334.662 209.133 331.496 205.229 331.496Z" fill="#F4C0B2"/>
<path d="M150.969 354.09H150.478C146.574 354.09 143.408 357.255 143.408 361.16V361.651C143.408 365.556 146.574 368.721 150.478 368.721H150.969C154.873 368.721 158.039 365.556 158.039 361.651V361.16C158.039 357.255 154.873 354.09 150.969 354.09Z" fill="#F4C0B2"/>
<path d="M178.098 354.09H177.607C173.703 354.09 170.537 357.255 170.537 361.16V361.651C170.537 365.556 173.703 368.721 177.607 368.721H178.098C182.002 368.721 185.168 365.556 185.168 361.651V361.16C185.168 357.255 182.002 354.09 178.098 354.09Z" fill="#F4C0B2"/>
<path d="M205.229 354.09H204.738C200.834 354.09 197.668 357.255 197.668 361.16V361.651C197.668 365.556 200.834 368.721 204.738 368.721H205.229C209.133 368.721 212.299 365.556 212.299 361.651V361.16C212.299 357.255 209.133 354.09 205.229 354.09Z" fill="#F4C0B2"/>
<path d="M227.585 431.334C225.731 433.033 223.308 433.975 220.794 433.973H135.515C132.844 433.975 130.281 432.919 128.385 431.038C126.49 429.156 125.416 426.601 125.398 423.929V246.737C125.403 244.056 126.471 241.487 128.368 239.594C130.264 237.7 132.835 236.637 135.515 236.637H215.242L216.743 239.427C211.95 251.837 209.004 268.298 209.4 290.099C210.332 340.938 219.5 389.785 227.585 431.334Z" stroke="white" stroke-width="2.49984" stroke-miterlimit="10"/>
<path d="M210.573 265.297H145.014C144.126 265.297 143.275 265.65 142.646 266.278C142.019 266.906 141.666 267.757 141.666 268.645V293.197C141.666 294.085 142.019 294.937 142.646 295.564C143.275 296.192 144.126 296.545 145.014 296.545H209.575L210.573 265.297Z" fill="#F4C0B2"/>
<path d="M209.987 268.617H148.931C147.257 268.617 145.834 269.8 145.834 271.251V290.614C145.834 292.064 147.229 293.247 148.931 293.247H209.055L209.987 268.617Z" fill="#DB3305"/>
<path d="M144.909 394.088H211.4C213.181 394.088 214.625 392.644 214.625 390.863V384.284C214.625 382.503 213.181 381.059 211.4 381.059H144.909C143.128 381.059 141.684 382.503 141.684 384.284V390.863C141.684 392.644 143.128 394.088 144.909 394.088Z" fill="#F4C0B2"/>
<path d="M209.988 387.065C209.986 387.34 209.926 387.612 209.81 387.863C209.695 388.113 209.527 388.335 209.318 388.515C207.978 389.736 206.906 391.223 206.174 392.882C205.441 394.54 205.061 396.333 205.061 398.146V450.598C205.061 452.009 204.783 453.405 204.243 454.708C203.703 456.011 202.912 457.195 201.914 458.192C200.917 459.189 199.732 459.98 198.429 460.519C197.126 461.058 195.729 461.335 194.319 461.334H193.527C188.789 461.334 184.136 457.546 183.483 452.858C183.061 450.01 181.578 447.427 179.33 445.628C177.083 443.828 174.238 442.946 171.366 443.158C168.495 443.37 165.81 444.66 163.851 446.77C161.892 448.88 160.804 451.653 160.806 454.532V483.883C159.411 484.09 156.375 484.508 155.839 484.508C155.304 484.508 146.844 494.229 143.173 498.503H96.6356C95.336 498.503 94.09 497.987 93.1715 497.068C92.2525 496.149 91.7363 494.903 91.7363 493.604V453.182C91.7369 451.684 92.0326 450.202 92.6068 448.818C93.181 447.435 94.0213 446.179 95.081 445.121C96.1412 444.063 97.3989 443.223 98.7828 442.651C100.167 442.08 101.65 441.786 103.147 441.788H127.381C128.775 441.792 130.156 441.521 131.444 440.99C132.732 440.459 133.903 439.677 134.888 438.692C135.874 437.707 136.654 436.536 137.185 435.248C137.717 433.96 137.988 432.579 137.983 431.186V398.146C137.986 394.692 139.36 391.38 141.803 388.937C144.246 386.494 147.558 385.12 151.013 385.117H208.057C208.571 385.12 209.063 385.327 209.425 385.692C209.787 386.057 209.989 386.551 209.988 387.065Z" fill="#F4C0B2"/>
<path d="M329.098 317.403C329.37 317.219 329.675 317.09 329.996 317.023C329.672 317.083 329.366 317.213 329.098 317.403Z" fill="#DB3305"/>
<path d="M343.353 177.895H392.954C395.601 177.907 398.136 178.965 400.008 180.838C401.879 182.711 402.936 185.246 402.948 187.894V216.642C402.934 219.288 401.877 221.823 400.006 223.694C398.134 225.565 395.6 226.622 392.954 226.636H341.696C340.652 226.631 339.628 226.92 338.741 227.468C337.853 228.017 337.137 228.803 336.674 229.738C339.821 217.518 343.727 198.027 343.353 177.895Z" fill="#F4C0B2"/>
<path d="M494.813 262.456V290.686C494.815 296.551 493.062 302.284 489.781 307.146C486.5 312.008 481.84 315.778 476.399 317.972C473.029 319.337 469.433 320.057 465.797 320.092C465.654 320.1 465.511 320.1 465.368 320.092C465.128 320.092 464.882 320.092 464.642 320.092C458.261 319.923 452.107 317.687 447.106 313.72C442.105 309.754 438.527 304.271 436.91 298.096C436.604 296.935 436.374 295.754 436.223 294.564C436.049 293.278 435.964 291.982 435.966 290.686C435.964 291.96 435.882 293.232 435.721 294.497C435.561 295.708 435.333 296.91 435.035 298.096C433.395 304.395 429.711 309.972 424.561 313.953C419.411 317.934 413.086 320.093 406.577 320.093C400.068 320.093 393.742 317.934 388.592 313.953C383.443 309.972 379.759 304.395 378.119 298.096C377.946 297.46 377.806 296.807 377.667 296.165C377.337 294.357 377.171 292.523 377.17 290.686C377.166 292.867 376.922 295.041 376.445 297.17C376.386 297.481 376.312 297.791 376.221 298.096C375.584 300.591 374.616 302.989 373.342 305.227C371.27 308.87 368.441 312.028 365.046 314.487C361.652 316.946 357.769 318.65 353.661 319.484C351.733 319.887 349.767 320.089 347.797 320.087H346.871C346.592 320.087 346.313 320.087 346.039 320.031C346.006 320.031 345.972 320.031 345.939 320.031C345.66 320.031 345.381 319.997 345.113 319.964C344.845 319.93 344.555 319.914 344.248 319.875H344.215C343.802 319.824 343.372 319.757 342.97 319.685C342.568 319.612 342.111 319.551 341.698 319.462L340.459 319.172C339.628 318.965 338.835 318.703 338.043 318.429C337.647 318.29 337.267 318.156 336.871 318C336.094 317.687 335.335 317.341 334.595 316.962C334.548 316.943 334.504 316.921 334.461 316.895C334.215 316.772 333.975 316.638 333.735 316.515C333.356 316.309 332.976 316.103 332.619 315.863C332.262 315.623 331.95 315.45 331.604 315.226C331.258 315.003 330.951 314.791 330.622 314.551C330.309 314.311 330.002 314.088 329.69 313.843C329.377 313.597 329.21 313.446 328.964 313.257C328.847 313.156 328.741 313.067 328.641 312.967C328.379 312.743 328.122 312.52 327.882 312.291L327.642 312.068C327.43 311.862 327.223 311.672 327.034 311.466C326.744 311.192 326.476 310.908 326.208 310.606C325.94 310.305 325.728 310.087 325.499 309.831C324.941 309.172 324.417 308.503 323.931 307.811C324.054 305.729 324.138 303.626 324.227 301.522C324.26 300.869 324.294 300.3 324.311 299.764C324.433 296.416 324.534 293.024 324.606 289.648C324.986 268.896 322.33 253.004 317.955 240.823L321.727 233.669C327.469 238.356 332 241.995 332.932 242.541C332.932 242.541 335.839 232.665 337.613 226.047C337.613 226.147 341.72 226.527 341.72 226.633L353.684 226.047C353.684 229.149 351.976 236.649 361.524 237.927H470.334C476.832 237.937 483.059 240.526 487.65 245.125C492.24 249.725 494.816 255.958 494.813 262.456Z" fill="#F4C0B2"/>
<path d="M318.619 242.629C318.619 242.629 326.208 265.875 324.344 302.647C324.344 302.647 331.09 313.707 348.338 313.707C364.353 313.707 372.053 302.804 376.294 288.597C376.351 288.408 376.468 288.241 376.627 288.124C376.785 288.005 376.978 287.942 377.176 287.942C377.374 287.942 377.566 288.005 377.725 288.124C377.884 288.241 378 288.408 378.057 288.597C380.351 296.375 387.811 315.253 406.365 316.357C424.701 317.473 432.725 297.865 435.347 289.322C435.406 289.13 435.527 288.962 435.69 288.844C435.854 288.727 436.052 288.666 436.253 288.672C436.455 288.678 436.649 288.749 436.806 288.876C436.963 289.003 437.074 289.177 437.122 289.373C438.974 296.783 445.157 312.251 464.754 314.689C464.88 314.706 465.007 314.706 465.133 314.689C468.314 314.662 471.461 314.031 474.407 312.831C479.172 310.906 483.253 307.601 486.126 303.339C488.998 299.077 490.531 294.055 490.528 288.915V264.129C490.528 258.427 488.263 252.958 484.231 248.926C480.199 244.894 474.73 242.629 469.028 242.629H318.619Z" fill="#DB3305"/>
<path d="M357.026 367.946V399.98C357.01 405.462 354.825 410.714 350.95 414.589C347.074 418.465 341.822 420.649 336.341 420.666H308.475C310.11 412.296 311.823 403.669 313.497 394.741C313.77 393.262 314.055 391.778 314.339 390.277C314.752 388.045 315.165 385.789 315.578 383.508C316.097 380.596 316.633 377.66 317.129 374.714C318.68 365.786 320.165 356.618 321.509 347.277H336.363C341.838 347.3 347.081 349.484 350.952 353.356C354.822 357.227 357.006 362.472 357.026 367.946Z" fill="#DB3305"/>
<path d="M393.318 420.672H424.589C435.621 420.672 444.565 411.728 444.565 400.696V367.238C444.565 356.205 435.621 347.262 424.589 347.262H393.318C382.285 347.262 373.342 356.205 373.342 367.238V400.696C373.342 411.728 382.285 420.672 393.318 420.672Z" fill="#DB3305"/>
<path d="M314.316 390.26H341.028V386.834C341.026 384.738 340.194 382.729 338.713 381.245C337.232 379.762 335.223 378.926 333.127 378.922H331.559V383.816C331.559 384.092 331.449 384.358 331.253 384.554C331.058 384.749 330.792 384.859 330.515 384.859C330.238 384.859 329.973 384.749 329.777 384.554C329.582 384.358 329.472 384.092 329.472 383.816V378.922H327.798V383.816C327.779 384.078 327.66 384.324 327.467 384.504C327.274 384.683 327.02 384.783 326.757 384.783C326.494 384.783 326.24 384.683 326.047 384.504C325.854 384.324 325.736 384.078 325.716 383.816V378.922H319.902" stroke="white" stroke-width="2.49984" stroke-miterlimit="10"/>
<path d="M340.095 409.242C340.093 409.538 340.033 409.83 339.917 410.102C339.801 410.374 339.632 410.62 339.42 410.827C339.004 411.242 338.44 411.477 337.852 411.48H310.125C310.398 410.001 310.683 408.517 310.968 407.016H337.852C338.443 407.02 339.008 407.256 339.427 407.671C339.847 408.088 340.086 408.651 340.095 409.242Z" stroke="white" stroke-width="2.49984" stroke-miterlimit="10"/>
<path d="M316.548 395.662C316.548 396.834 316.098 397.963 315.29 398.813C314.482 399.664 313.378 400.171 312.207 400.232C312.726 397.319 313.262 394.384 313.758 391.438C314.587 391.79 315.293 392.378 315.79 393.129C316.286 393.88 316.55 394.762 316.548 395.662Z" stroke="white" stroke-width="2.49984" stroke-miterlimit="10"/>
<path d="M324.465 394.612V400.549C324.476 400.692 324.456 400.835 324.409 400.971C324.361 401.106 324.286 401.231 324.189 401.335C324.091 401.44 323.973 401.525 323.841 401.582C323.71 401.639 323.568 401.669 323.424 401.669C323.281 401.669 323.139 401.639 323.008 401.582C322.876 401.525 322.758 401.44 322.66 401.335C322.562 401.231 322.488 401.106 322.44 400.971C322.392 400.835 322.373 400.692 322.384 400.549V394.612C322.403 394.349 322.521 394.103 322.714 393.924C322.907 393.744 323.161 393.645 323.424 393.645C323.688 393.645 323.942 393.744 324.135 393.924C324.328 394.103 324.446 394.349 324.465 394.612Z" stroke="white" stroke-width="2.49984" stroke-miterlimit="10"/>
<path d="M328.217 394.612V400.549C328.228 400.692 328.209 400.835 328.161 400.971C328.113 401.106 328.038 401.231 327.941 401.335C327.843 401.44 327.725 401.525 327.593 401.582C327.461 401.639 327.32 401.669 327.176 401.669C327.033 401.669 326.891 401.639 326.76 401.582C326.628 401.525 326.51 401.44 326.412 401.335C326.314 401.231 326.239 401.106 326.192 400.971C326.144 400.835 326.125 400.692 326.136 400.549V394.612C326.155 394.349 326.273 394.103 326.466 393.924C326.659 393.744 326.913 393.645 327.176 393.645C327.44 393.645 327.694 393.744 327.887 393.924C328.08 394.103 328.197 394.349 328.217 394.612Z" stroke="white" stroke-width="2.49984" stroke-miterlimit="10"/>
<path d="M424.638 369.11C425.843 366.213 427.004 363.92 427.696 362.626C427.862 362.308 427.897 361.938 427.792 361.595C427.688 361.253 427.453 360.966 427.138 360.795L419.85 357.726C419.567 357.562 419.245 357.476 418.918 357.476C418.591 357.476 418.269 357.562 417.986 357.726C417.703 357.89 417.468 358.127 417.306 358.411C417.143 358.695 417.058 359.017 417.06 359.345C417.06 365.711 415.23 371.704 408.869 371.704C402.502 371.704 400.677 365.711 400.677 359.345V359.071C400.674 358.759 400.594 358.453 400.442 358.18C400.291 357.908 400.072 357.677 399.809 357.511C399.545 357.344 399.244 357.246 398.932 357.226C398.621 357.207 398.31 357.265 398.027 357.397L390.6 360.137C390.414 360.218 390.249 360.341 390.116 360.494C389.984 360.647 389.887 360.829 389.834 361.025C389.78 361.22 389.771 361.426 389.807 361.626C389.843 361.825 389.923 362.015 390.042 362.179L390.142 362.319C394.139 367.886 396.595 374.41 397.264 381.231C397.932 388.052 396.788 394.929 393.948 401.167L391.325 406.936C391.14 407.344 391.061 407.792 391.094 408.238C391.127 408.685 391.271 409.116 391.514 409.492C391.756 409.869 392.09 410.178 392.482 410.393C392.875 410.607 393.316 410.719 393.764 410.72H426.128C426.583 410.72 427.031 410.605 427.429 410.384C427.828 410.163 428.163 409.844 428.403 409.457C428.644 409.071 428.781 408.629 428.803 408.174C428.824 407.719 428.73 407.266 428.527 406.858L425.754 401.312C423.28 396.335 421.9 390.886 421.708 385.331C421.516 379.777 422.515 374.245 424.638 369.11Z" stroke="white" stroke-width="2.49984" stroke-miterlimit="10"/>
<path d="M397.393 387.492H421.861" stroke="white" stroke-width="2.49984" stroke-miterlimit="10"/>
<path d="M402.905 387.5C403.022 391.663 402.944 402.393 399.523 410.724" stroke="white" stroke-width="2.49984" stroke-miterlimit="10"/>
<path d="M419.706 410.724C416.274 402.393 416.207 391.663 416.325 387.5" stroke="white" stroke-width="2.49984" stroke-miterlimit="10"/>
<path d="M409.627 410.724V387.5" stroke="white" stroke-width="2.49984" stroke-miterlimit="10"/>
<g opacity="0.54">
<path opacity="0.54" d="M269.809 529.647H367.498V529.335C367.496 526.743 366.465 524.258 364.632 522.425C362.799 520.593 360.313 519.564 357.722 519.564H357.554C356.271 519.565 355.001 519.312 353.816 518.822C352.631 518.331 351.554 517.611 350.648 516.703C349.741 515.796 349.022 514.718 348.533 513.533C348.044 512.347 347.792 511.076 347.795 509.793V498.449H294.818C294.818 498.449 289.885 523.688 287.949 527.566C287.729 528.078 287.41 528.541 287.008 528.928C286.607 529.315 286.133 529.617 285.613 529.818C285.093 530.019 284.538 530.113 283.981 530.097C283.424 530.079 282.876 529.952 282.369 529.72L269.809 529.647Z" fill="#DB3305"/>
</g>
<path d="M349.159 196.633C344.923 196.633 342.301 199.819 342.301 203.837C342.301 207.676 344.661 210.884 348.935 210.884C353.176 210.884 355.849 208.055 355.849 203.63C355.866 199.919 353.606 196.633 349.159 196.633ZM349.125 207.955H349.075C347.3 207.955 346.196 206.23 346.212 203.764C346.229 201.298 347.3 199.562 349.075 199.562C350.849 199.562 351.954 201.353 351.954 203.731C351.954 206.23 350.9 207.955 349.125 207.955Z" fill="white"/>
<path d="M367.723 206.708C367.36 205.52 366.863 204.643 365.948 204.231V204.158C366.628 203.895 367.215 203.437 367.635 202.841C368.055 202.245 368.29 201.539 368.308 200.81C368.343 200.241 368.239 199.673 368.004 199.154C367.77 198.635 367.413 198.181 366.964 197.83C365.915 197.021 364.397 196.742 362.276 196.742C361.054 196.742 359.933 196.815 359.001 196.898C358.675 196.935 358.373 197.091 358.154 197.336C357.935 197.581 357.813 197.898 357.812 198.226V208.828C357.812 209.315 358.006 209.782 358.35 210.126C358.695 210.471 359.161 210.664 359.648 210.664C360.135 210.664 360.602 210.471 360.946 210.126C361.291 209.782 361.484 209.315 361.484 208.828V205.48H362.087C363.203 205.48 363.761 205.843 364.101 207.478C364.274 208.237 364.447 208.856 364.603 209.375C364.717 209.752 364.949 210.082 365.266 210.316C365.583 210.549 365.968 210.673 366.361 210.67H366.395C366.674 210.668 366.949 210.603 367.2 210.479C367.45 210.355 367.67 210.176 367.84 209.955C368.011 209.734 368.13 209.477 368.187 209.203C368.244 208.93 368.238 208.647 368.169 208.376C368.029 207.796 367.879 207.21 367.723 206.708ZM362.449 202.802H361.484V199.566C361.899 199.498 362.319 199.467 362.74 199.476C363.967 199.476 364.637 200.079 364.637 201.1C364.637 202.121 363.861 202.813 362.466 202.813L362.449 202.802Z" fill="white"/>
<path d="M378.251 207.624H375.461C375.126 207.624 374.804 207.49 374.566 207.253C374.328 207.015 374.195 206.693 374.195 206.357C374.195 206.021 374.328 205.699 374.566 205.461C374.804 205.224 375.126 205.09 375.461 205.09H377.649C377.853 205.103 378.058 205.074 378.251 205.004C378.443 204.934 378.62 204.826 378.769 204.685C378.918 204.545 379.037 204.376 379.118 204.188C379.199 204 379.241 203.797 379.241 203.592C379.241 203.387 379.199 203.185 379.118 202.997C379.037 202.809 378.918 202.639 378.769 202.499C378.62 202.358 378.443 202.25 378.251 202.18C378.058 202.111 377.853 202.082 377.649 202.094H375.355C375.045 202.094 374.747 201.971 374.527 201.751C374.307 201.531 374.184 201.233 374.184 200.922C374.184 200.611 374.307 200.313 374.527 200.094C374.747 199.874 375.045 199.75 375.355 199.75H377.961C378.157 199.752 378.351 199.715 378.533 199.64C378.714 199.567 378.879 199.457 379.018 199.32C379.157 199.182 379.268 199.018 379.343 198.837C379.418 198.656 379.457 198.462 379.457 198.266V198.216C379.457 198.019 379.419 197.824 379.345 197.642C379.27 197.46 379.16 197.294 379.021 197.155C378.882 197.016 378.717 196.905 378.535 196.829C378.353 196.754 378.158 196.715 377.961 196.715H372.047C371.629 196.718 371.229 196.886 370.935 197.184C370.641 197.48 370.477 197.882 370.479 198.3V209.398C370.481 209.735 370.617 210.056 370.857 210.293C371.096 210.529 371.42 210.661 371.756 210.659H378.251C378.447 210.659 378.642 210.619 378.822 210.543C379.003 210.467 379.167 210.356 379.306 210.217C379.443 210.077 379.552 209.912 379.626 209.731C379.7 209.549 379.737 209.355 379.736 209.158V209.125C379.737 208.929 379.7 208.734 379.626 208.552C379.552 208.371 379.443 208.206 379.306 208.066C379.167 207.927 379.003 207.816 378.822 207.74C378.642 207.664 378.447 207.624 378.251 207.624Z" fill="white"/>
<path d="M308.675 347.683V376.258C308.674 377.629 308.129 378.943 307.158 379.912C306.188 380.881 304.874 381.425 303.503 381.425H230.65C230.144 381.423 229.64 381.348 229.155 381.202C229.136 381.165 229.125 381.125 229.121 381.084C228.89 380.508 228.773 379.892 228.775 379.271V350.696C228.766 344.611 231.101 338.757 235.296 334.349C239.492 329.942 245.224 327.321 251.302 327.031C251.698 327.031 252.078 326.997 252.474 326.997H288.269C288.591 326.992 288.914 327.003 289.235 327.031C290.78 327.083 292.317 327.291 293.821 327.65C296.973 328.406 299.934 329.805 302.521 331.757C306.491 336.11 308.687 341.791 308.675 347.683Z" fill="#F4C0B2"/>
<path d="M333.087 242.978C332.752 242.768 332.43 242.539 332.122 242.291C330.331 240.963 326.542 237.911 321.988 234.189C309.858 224.296 292.292 209.637 292.292 209.637L291.706 211.774L289.345 220.339C289.345 220.339 289.345 220.339 289.312 220.339C266.724 232.208 249.036 221.935 248.31 221.528L246.519 213.995L246.033 211.958L214.445 235.16L204.619 242.414C199.502 228.313 169.632 138.877 227.631 113.276C235.197 119.76 250.737 129.547 268.822 127.684C269.732 127.6 270.647 127.477 271.523 127.36C274.648 127.054 277.737 126.449 280.747 125.552L280.847 125.519C295.534 121.205 305.6 111.228 306.928 109.895C369.351 140.06 333.087 242.978 333.087 242.978Z" fill="#DB3305"/>
<path d="M291.348 75.5188C291.348 75.5188 289.244 75.6416 287.001 75.6081C284.467 75.6081 281.778 75.3626 281.867 74.5535C281.984 73.4375 284.055 69.3138 284.161 66.4904C284.194 65.3744 283.932 64.5039 283.173 64.0575C281.175 62.9415 273.302 55.8884 268.938 51.045C268.648 50.7158 268.38 50.4089 268.112 50.0964C266.874 48.6679 266.076 47.4961 265.992 46.8767C265.646 44.1537 261.288 57.3001 255.066 61.8199C255.066 61.8199 251.964 67.3999 248.962 67.7626C250.12 69.0661 250.893 70.6659 251.194 72.3828C251.265 72.798 251.312 73.2176 251.333 73.6383C251.342 73.7778 251.342 73.9173 251.333 74.0568C251.333 77.9349 246.311 76.9863 244.353 76.5344C242.852 76.194 239.643 75.1896 238.215 73.3817V57.9585C238.215 57.9585 242.121 31.3141 269.809 30.0586C275.214 30.1653 280.513 31.566 285.265 34.1432C285.292 34.1572 285.316 34.1741 285.338 34.1934C291.041 38.6574 296.024 46.2071 296.71 59.1359C296.704 59.1471 298.948 75.5188 291.348 75.5188Z" fill="#DB3305"/>
<path d="M227.043 108.73C227.043 108.73 244.609 127.496 267.537 127.496C290.465 127.496 307.071 109.724 307.071 109.724" stroke="black" stroke-width="2.49984" stroke-miterlimit="10"/>
<path d="M246.045 211.957L248.311 221.527L266.686 299.362C266.929 300.407 267.062 301.475 267.082 302.548C267.078 302.551 267.076 302.555 267.073 302.559C267.071 302.564 267.071 302.568 267.071 302.573C267.071 302.578 267.071 302.583 267.073 302.587C267.076 302.591 267.078 302.595 267.082 302.599C267.073 302.611 267.069 302.627 267.069 302.643C267.069 302.659 267.073 302.674 267.082 302.688C267.082 302.688 267.082 302.688 267.082 302.721V311.354H254.806C254.143 311.357 253.486 311.227 252.875 310.97C252.264 310.713 251.712 310.335 251.251 309.858C250.793 309.375 250.437 308.806 250.202 308.184C250.095 307.923 250.014 307.652 249.962 307.375C249.89 307.053 249.855 306.723 249.856 306.393V303.737C249.857 301.842 249.39 299.977 248.495 298.308L230.951 265.737L216.784 239.416L215.283 236.626L214.49 235.159" stroke="black" stroke-width="2.49984" stroke-miterlimit="10"/>
<path d="M292.286 209.652L267.583 299.089C267.234 300.361 267.058 301.675 267.059 302.995V311.365H280.484C281.8 311.365 283.061 310.842 283.992 309.912C284.922 308.981 285.445 307.72 285.445 306.404V303.396C285.446 301.462 285.936 299.561 286.868 297.867L321.966 234.182" stroke="black" stroke-width="2.49984" stroke-miterlimit="10"/>
<path d="M308.964 347.684V376.259C308.962 377.629 308.417 378.943 307.449 379.911C306.48 380.88 305.167 381.425 303.797 381.426H230.911C230.297 381.43 229.689 381.315 229.119 381.086C228.135 380.72 227.286 380.061 226.688 379.198C226.09 378.335 225.769 377.309 225.771 376.259V347.684C225.771 342.36 227.563 337.191 230.859 333.011C234.155 328.83 238.763 325.881 243.94 324.639C244.303 324.555 244.643 324.482 245.006 324.415C245.368 324.348 245.871 324.259 246.317 324.209C246.957 324.109 247.601 324.045 248.248 324.019H248.309C248.705 324.019 249.085 323.986 249.481 323.986H285.277C285.599 323.98 285.921 323.991 286.242 324.019C287.788 324.065 289.325 324.273 290.829 324.639C295.999 325.887 300.599 328.839 303.889 333.019C307.178 337.199 308.966 342.365 308.964 347.684Z" stroke="black" stroke-width="2.49984" stroke-miterlimit="10"/>
<path d="M285.451 305.02H287.968C288.341 305.018 288.71 305.09 289.055 305.232C289.4 305.373 289.713 305.581 289.978 305.844C290.242 306.107 290.451 306.419 290.595 306.763C290.739 307.107 290.813 307.476 290.814 307.849V324.633" stroke="black" stroke-width="1.66284" stroke-miterlimit="10"/>
<path d="M243.93 324.633V307.849C243.931 307.099 244.23 306.38 244.76 305.85C245.29 305.32 246.009 305.021 246.759 305.02H249.828" stroke="black" stroke-width="1.66284" stroke-miterlimit="10"/>
<path d="M284.055 309.828H284.987C285.149 309.828 285.311 309.86 285.462 309.923C285.613 309.985 285.749 310.078 285.864 310.193C285.98 310.309 286.071 310.446 286.133 310.596C286.195 310.748 286.226 310.91 286.225 311.072V324.012" stroke="black" stroke-width="1.66284" stroke-miterlimit="10"/>
<path d="M248.311 324.012V311.056C248.311 310.731 248.439 310.42 248.668 310.19C248.897 309.96 249.208 309.83 249.533 309.828H251.24" stroke="black" stroke-width="1.66284" stroke-miterlimit="10"/>
<path d="M295.59 501.57C295.399 504.311 295.054 507.038 294.558 509.739C293.353 516.341 290.797 525.079 285.524 529.113C283.733 528.031 279.944 524.287 277.338 511.637C278.12 512.893 279.226 513.916 280.54 514.599C281.853 515.281 283.326 515.597 284.804 515.515C285.138 515.504 285.471 515.476 285.803 515.431C293.28 514.293 295.35 503.021 295.59 501.57Z" fill="black"/>
<path d="M261.747 501.57C261.556 504.311 261.211 507.038 260.714 509.739C259.509 516.341 256.959 525.079 251.686 529.113C249.889 528.031 246.106 524.287 243.5 511.637C244.281 512.893 245.387 513.916 246.699 514.598C248.011 515.28 249.483 515.597 250.96 515.515C251.295 515.504 251.628 515.476 251.959 515.431C259.47 514.293 261.507 503.021 261.747 501.57Z" fill="black"/>
<path d="M237.453 57.5067C237.541 49.7183 240.692 42.2777 246.224 36.7951C251.756 31.3124 259.225 28.2286 267.014 28.211C274.803 28.1934 282.286 31.2434 287.843 36.701C293.399 42.1586 296.584 49.5849 296.707 57.3728V57.5067" stroke="black" stroke-width="2.49984" stroke-miterlimit="10"/>
<path d="M263.65 86.9453C263.65 86.9453 263.65 86.9453 263.684 86.9453C264.812 87.0714 265.947 87.1345 267.082 87.135C267.478 87.135 267.858 87.135 268.254 87.1016C268.287 87.1016 268.321 87.1016 268.354 87.1016" stroke="black" stroke-width="1.66284" stroke-miterlimit="10"/>
<path d="M249.465 66.8748C249.993 70.1452 250.942 73.3337 252.288 76.3608C254.409 80.8973 257.98 85.7575 263.649 86.9628C263.649 86.9628 263.649 86.9628 263.683 86.9628C265.133 87.2708 266.625 87.335 268.096 87.1525C268.15 87.1492 268.202 87.1375 268.253 87.119C268.286 87.119 268.32 87.119 268.353 87.119C275.423 86.1872 279.469 80.8415 281.745 75.535C283.246 72.0938 284.211 68.4428 284.608 64.7098C274.268 60.748 266.322 46.3125 266.322 46.3125C266.322 46.3125 257.305 62.6507 249.465 66.8748Z" stroke="black" stroke-width="2.49984" stroke-miterlimit="10"/>
<path d="M294.123 506.859C294.173 506.24 294.396 504.968 294.447 504.348C298.353 455.423 323.161 375.657 324.729 290.104C325.109 269.352 322.458 253.46 318.078 241.273" stroke="black" stroke-width="2.49984" stroke-miterlimit="10"/>
<path d="M273.213 501.412L269.541 381.426" stroke="black" stroke-width="2.49984" stroke-miterlimit="10"/>
<path d="M273.236 501.57C273.354 503.574 274.788 523.634 284.022 529.649C284.022 529.649 290.763 528.377 294.161 506.509" stroke="black" stroke-width="2.49984" stroke-miterlimit="10"/>
<path d="M294.451 504.325C293.106 509.665 290.74 515.697 284.021 515.485C275.735 515.245 273.492 503.042 273.235 501.535C273.231 501.483 273.231 501.431 273.235 501.379" stroke="black" stroke-width="2.49984" stroke-miterlimit="10"/>
<path d="M216.744 239.41C211.951 251.82 209.005 268.281 209.401 290.082C210.333 340.938 219.501 389.786 227.586 431.334C233.099 459.636 238.115 484.54 239.683 504.36C239.677 504.406 239.677 504.453 239.683 504.499C239.75 505.119 239.94 506.43 240.029 507.133C240.031 507.232 240.043 507.331 240.063 507.429" stroke="black" stroke-width="2.49984" stroke-miterlimit="10"/>
<path d="M264.563 381.426L260.869 502.088" stroke="black" stroke-width="2.49984" stroke-miterlimit="10"/>
<path d="M260.882 501.57C260.765 503.574 259.331 523.634 250.096 529.649C250.096 529.649 243.4 528.734 239.996 506.866" stroke="black" stroke-width="2.49984" stroke-miterlimit="10"/>
<path d="M239.666 504.325C241.011 509.665 243.382 515.697 250.095 515.485C258.381 515.245 260.624 503.042 260.881 501.535C260.885 501.483 260.885 501.431 260.881 501.379" stroke="black" stroke-width="1.66284" stroke-miterlimit="10"/>
<path d="M237.453 56.5391V69.5739C237.455 71.3696 238.169 73.091 239.439 74.3605C240.71 75.6294 242.432 76.3425 244.227 76.3425H252.29" stroke="black" stroke-width="2.49984" stroke-miterlimit="10"/>
<path d="M296.707 57.3789V69.2476C296.707 72.7072 293.917 75.5139 292.159 75.5139H282.422" stroke="black" stroke-width="2.49984" stroke-miterlimit="10"/>
<path d="M255.069 81.0391L253.858 99.8158C253.809 100.467 253.535 101.08 253.081 101.549C252.627 102.018 252.024 102.313 251.375 102.383C152.665 113.291 203.811 242.999 203.811 242.999L246.035 211.974L235.249 169.298" stroke="black" stroke-width="2.49984" stroke-miterlimit="10"/>
<path d="M278.561 81.0391L280.703 100.441C280.777 101.05 281.049 101.618 281.478 102.057C281.906 102.495 282.468 102.78 283.075 102.868C377.594 116.656 333.072 242.976 333.072 242.976C330.192 241.252 292.276 209.647 292.276 209.647L303.771 169.437" stroke="black" stroke-width="2.49984" stroke-miterlimit="10"/>
<path d="M248.311 221.526C248.311 221.526 266.312 232.496 289.351 220.371" stroke="black" stroke-width="1.66284" stroke-miterlimit="10"/>
<path d="M249.465 66.875C247.998 67.6227 246.46 68.2209 244.873 68.6606" stroke="black" stroke-width="2.49984" stroke-miterlimit="10"/>
<path d="M284.625 64.6953C285.922 65.159 287.249 65.5318 288.598 65.8113" stroke="black" stroke-width="2.49984" stroke-miterlimit="10"/>
<path d="M246.605 90.5139C249.221 90.5139 251.342 88.3929 251.342 85.7765C251.342 83.1606 249.221 81.0391 246.605 81.0391C243.988 81.0391 241.867 83.1606 241.867 85.7765C241.867 88.3929 243.988 90.5139 246.605 90.5139Z" stroke="black" stroke-width="1.66284" stroke-miterlimit="10"/>
<path d="M286.612 90.5139C289.229 90.5139 291.35 88.3929 291.35 85.7765C291.35 83.1606 289.229 81.0391 286.612 81.0391C283.996 81.0391 281.875 83.1606 281.875 85.7765C281.875 88.3929 283.996 90.5139 286.612 90.5139Z" stroke="black" stroke-width="1.66284" stroke-miterlimit="10"/>
<path d="M251.346 85.7759C251.343 86.7111 251.063 87.6245 250.542 88.4013C250.021 89.178 249.282 89.7829 248.418 90.1411C247.553 90.4988 246.603 90.5931 245.685 90.4123C244.768 90.231 243.924 89.7829 243.261 89.1239C242.801 88.1145 242.709 86.9761 243.002 85.9059C243.294 84.8362 243.953 83.9027 244.862 83.2677C245.772 82.6332 246.875 82.3369 247.98 82.4312C249.085 82.5255 250.122 83.0043 250.911 83.7838C251.208 84.4054 251.357 85.0873 251.346 85.7759Z" fill="black"/>
<path d="M291.349 85.7759C291.347 86.7111 291.068 87.6251 290.548 88.4024C290.027 89.1791 289.289 89.7851 288.425 90.1433C287.56 90.501 286.61 90.5953 285.692 90.414C284.775 90.2326 283.932 89.7834 283.269 89.1239C282.809 88.1145 282.717 86.9761 283.01 85.9059C283.302 84.8362 283.961 83.9027 284.87 83.2677C285.779 82.6332 286.883 82.3369 287.988 82.4312C289.093 82.5255 290.13 83.0043 290.919 83.7838C291.21 84.4071 291.358 85.0879 291.349 85.7759Z" fill="black"/>
<path d="M246.604 81.0371V68.0859" stroke="black" stroke-width="2.49984" stroke-miterlimit="10"/>
<path d="M286.611 81.0381V65.3359" stroke="black" stroke-width="2.49984" stroke-miterlimit="10"/>
<path d="M251.207 309.829H249.533C249.208 309.831 248.897 309.961 248.669 310.191C248.439 310.421 248.311 310.732 248.311 311.057V324.014C246.84 324.082 245.379 324.29 243.947 324.633V307.849C243.949 307.099 244.247 306.38 244.778 305.85C245.308 305.32 246.026 305.021 246.776 305.02H249.829V306.381C249.821 307.666 250.315 308.904 251.207 309.829Z" fill="black"/>
<path d="M284.055 309.829H285.729C286.053 309.831 286.364 309.961 286.593 310.191C286.822 310.421 286.951 310.732 286.951 311.057V324.014C288.42 324.082 289.879 324.289 291.309 324.633V307.849C291.309 307.099 291.011 306.38 290.482 305.85C289.953 305.32 289.235 305.021 288.485 305.02H285.433V306.381C285.438 307.666 284.944 308.902 284.055 309.829Z" fill="black"/>
<path d="M367.501 529.648H142.008" stroke="black" stroke-width="2.49984" stroke-miterlimit="10"/>
<path d="M273.241 65.2509C274.227 65.2509 275.026 64.4513 275.026 63.4653C275.026 62.4793 274.227 61.6797 273.241 61.6797C272.255 61.6797 271.455 62.4793 271.455 63.4653C271.455 64.4513 272.255 65.2509 273.241 65.2509Z" fill="black"/>
<path d="M259.174 65.2509C260.16 65.2509 260.96 64.4513 260.96 63.4653C260.96 62.4793 260.16 61.6797 259.174 61.6797C258.188 61.6797 257.389 62.4793 257.389 63.4653C257.389 64.4513 258.188 65.2509 259.174 65.2509Z" fill="black"/>
<path d="M249.984 60.0887C251.022 60.0385 265.999 60.0887 265.999 60.0887L263.477 68.3639H254.181L249.984 60.0887Z" fill="#DB3305"/>
<path d="M266.416 60.0887C267.448 60.0385 282.431 60.0887 282.431 60.0887L278.184 68.3639H268.916L266.416 60.0887Z" fill="#DB3305"/>
<path d="M249.984 60.0887C251.022 60.0385 265.999 60.0887 265.999 60.0887L263.477 68.3639H254.181L249.984 60.0887Z" stroke="black" stroke-width="1.66284" stroke-miterlimit="10"/>
<path d="M266.416 60.0887C267.448 60.0385 282.431 60.0887 282.431 60.0887L278.184 68.3639H268.916L266.416 60.0887Z" stroke="black" stroke-width="1.66284" stroke-miterlimit="10"/>
<path d="M262.656 75.5128C262.656 75.5128 267.756 77.1868 269.118 74.5586" stroke="black" stroke-width="1.66284" stroke-miterlimit="10"/>
<path d="M293.971 506.862C294.027 506.243 294.25 504.965 294.3 504.346C294.441 502.571 294.614 500.756 294.819 498.9C296.075 486.803 298.418 473.015 301.281 457.882C302.486 451.454 303.781 444.763 305.125 437.855C306.76 429.513 308.473 420.858 310.12 411.93C310.399 410.451 310.677 408.967 310.968 407.466C311.381 405.234 311.793 402.976 312.206 400.692C312.725 397.78 313.261 394.85 313.758 391.904C315.309 382.976 316.793 373.807 318.138 364.466C319.031 358.328 319.862 352.107 320.582 345.819C322.05 333.543 323.205 320.998 323.93 308.281C324.259 302.266 324.488 296.195 324.605 290.113C324.985 269.361 322.329 253.47 317.954 241.288L321.726 234.135C327.468 238.822 331.999 242.46 332.931 243.013C332.931 243.013 334.326 239.045 336.1 232.411C336.29 231.702 336.496 230.965 336.703 230.179C339.839 217.958 343.772 198.462 343.399 178.335C342.779 144.966 330.336 109.79 282.956 102.877C282.351 102.786 281.792 102.5 281.366 102.062C280.939 101.623 280.669 101.056 280.596 100.449" stroke="black" stroke-width="2.49984" stroke-miterlimit="10"/>
<path d="M189.414 404.238H152.234" stroke="white" stroke-width="2.49984" stroke-miterlimit="10"/>
<path d="M189.414 413.621H152.234" stroke="white" stroke-width="2.49984" stroke-miterlimit="10"/>
<path d="M189.414 423.008H152.234" stroke="white" stroke-width="2.49984" stroke-miterlimit="10"/>
<path d="M189.414 432.398H152.234" stroke="white" stroke-width="2.49984" stroke-miterlimit="10"/>
<path d="M143.988 457.047H106.809" stroke="white" stroke-width="2.49984" stroke-miterlimit="10"/>
<path d="M143.988 465.945H106.809" stroke="white" stroke-width="2.49984" stroke-miterlimit="10"/>
<path d="M143.988 474.852H106.809" stroke="white" stroke-width="2.49984" stroke-miterlimit="10"/>
<path d="M143.988 483.758H106.809" stroke="white" stroke-width="2.49984" stroke-miterlimit="10"/>
<path d="M189.414 441.785H152.234" stroke="white" stroke-width="2.49984" stroke-miterlimit="10"/>
<path d="M189.407 451.629H180.445" stroke="white" stroke-width="2.49984" stroke-miterlimit="10"/>
<path d="M193.525 461.312H160.781V454.488C160.78 451.609 161.868 448.835 163.827 446.725C165.786 444.616 168.47 443.325 171.342 443.113C174.213 442.901 177.059 443.784 179.306 445.583C181.553 447.382 183.037 449.966 183.458 452.814C184.139 457.523 188.787 461.312 193.525 461.312Z" fill="#DB3305"/>
</svg>
