<svg width="275" height="53" viewBox="0 0 275 53" fill="none" xmlns="http://www.w3.org/2000/svg">
<g clip-path="url(#clip0_301_9677)">
<path d="M268.545 52.0348C271.947 52.0348 274.705 49.2769 274.705 45.8748C274.705 42.4728 271.947 39.7148 268.545 39.7148C265.143 39.7148 262.385 42.4728 262.385 45.8748C262.385 49.2769 265.143 52.0348 268.545 52.0348Z" fill="#DB3305"/>
<path d="M34.7744 2.3547L18.4644 30.8647C18.3882 30.9977 18.2783 31.1082 18.1457 31.1851C18.0132 31.2619 17.8626 31.3024 17.7094 31.3024C17.5561 31.3024 17.4056 31.2619 17.273 31.1851C17.1405 31.1082 17.0305 30.9977 16.9544 30.8647L0.414389 2.4947C0.336927 2.36257 0.295721 2.21233 0.294933 2.05917C0.294146 1.90601 0.333806 1.75535 0.409905 1.62243C0.486004 1.48951 0.595845 1.37904 0.728324 1.30218C0.860804 1.22532 1.01123 1.18479 1.16439 1.1847L34.0144 1.0547C34.1669 1.05405 34.317 1.09352 34.4494 1.16915C34.5819 1.24478 34.6922 1.35391 34.7692 1.4856C34.8461 1.61729 34.8871 1.76691 34.8881 1.91945C34.889 2.07199 34.8498 2.22209 34.7744 2.3547Z" fill="#DB3305"/>
<path d="M58.7734 2.25313L30.5434 51.6031C30.4673 51.7361 30.3574 51.8466 30.2248 51.9235C30.0922 52.0004 29.9417 52.0408 29.7884 52.0408C29.6352 52.0408 29.4847 52.0004 29.3521 51.9235C29.2195 51.8466 29.1096 51.7361 29.0334 51.6031L20.8034 37.4931C20.7299 37.3581 20.6914 37.2069 20.6914 37.0531C20.6914 36.8994 20.7299 36.7481 20.8034 36.6131L40.9234 1.45313C40.9996 1.32112 41.1088 1.21116 41.2403 1.13403C41.3718 1.0569 41.521 1.01524 41.6734 1.01313L58.0134 0.953133C58.166 0.952485 58.316 0.991955 58.4485 1.06759C58.581 1.14322 58.6912 1.25235 58.7682 1.38404C58.8452 1.51573 58.8862 1.66535 58.8871 1.81789C58.888 1.97043 58.8488 2.12053 58.7734 2.25313Z" fill="#DB3305"/>
<path d="M86.0135 38.2225H65.2935C65.6724 39.3914 66.4422 40.3943 67.4735 41.0625C68.622 41.7614 69.9498 42.109 71.2935 42.0625C72.4178 42.0943 73.5379 41.911 74.5935 41.5225C75.6544 41.0563 76.6388 40.4326 77.5135 39.6725L83.9535 46.7825C81.0401 50.2891 76.7068 52.0458 70.9535 52.0525C67.6555 52.1204 64.3919 51.3715 61.4535 49.8725C58.8067 48.4911 56.6103 46.3814 55.1235 43.7925C53.6171 41.1325 52.8474 38.119 52.8935 35.0625C52.8378 31.9979 53.6007 28.9739 55.1035 26.3025C56.5281 23.7827 58.6219 21.7061 61.1535 20.3025C63.7538 18.9217 66.6475 18.1847 69.5916 18.1534C72.5356 18.1221 75.4443 18.7973 78.0735 20.1225C80.5888 21.4443 82.6714 23.461 84.0735 25.9325C85.6087 28.7325 86.3715 31.8904 86.2835 35.0825C86.1835 35.2525 86.1235 36.3125 86.0135 38.2225ZM66.7035 28.4725C65.8071 29.3326 65.2289 30.4713 65.0635 31.7025H74.6635C74.4833 30.4867 73.9109 29.363 73.0335 28.5025C72.1479 27.7558 71.0268 27.3463 69.8685 27.3463C68.7101 27.3463 67.5891 27.7558 66.7035 28.5025V28.4725Z" fill="black"/>
<path d="M119.655 21.7726C121.895 24.1993 123.015 27.8659 123.015 32.7726V51.4426H110.685V35.1126C110.685 31.3659 109.465 29.4926 107.025 29.4926C106.382 29.4754 105.743 29.6094 105.162 29.8839C104.58 30.1583 104.07 30.5655 103.675 31.0726C102.815 32.1326 102.385 33.7926 102.385 36.0726V51.4426H90.0547V18.7226H101.785V21.9526C102.892 20.7148 104.257 19.7351 105.785 19.0826C107.367 18.4152 109.068 18.0751 110.785 18.0826C112.442 18.0191 114.094 18.3162 115.625 18.9533C117.156 19.5904 118.531 20.5523 119.655 21.7726Z" fill="black"/>
<path d="M161.914 7.05469V51.4447H150.184V48.7547C148.404 50.948 145.678 52.0447 142.004 52.0447C139.444 52.0519 136.936 51.3267 134.774 49.9547C132.497 48.4885 130.681 46.4085 129.534 43.9547C128.192 41.1479 127.528 38.0652 127.594 34.9547C127.53 31.8637 128.195 28.8009 129.534 26.0147C130.693 23.5875 132.508 21.5332 134.774 20.0847C136.939 18.7232 139.447 18.0085 142.004 18.0247C145.338 18.0247 147.864 18.9614 149.584 20.8347V7.05469H161.914ZM148.444 39.8147C149.427 38.4294 149.907 36.75 149.804 35.0547C149.911 33.3683 149.43 31.6971 148.444 30.3247C148.024 29.8011 147.491 29.3785 146.885 29.0882C146.279 28.7979 145.616 28.6472 144.944 28.6472C144.273 28.6472 143.61 28.7979 143.004 29.0882C142.398 29.3785 141.865 29.8011 141.444 30.3247C140.459 31.6971 139.978 33.3683 140.084 35.0547C139.982 36.75 140.462 38.4294 141.444 39.8147C141.86 40.3467 142.391 40.777 142.997 41.0729C143.604 41.3689 144.27 41.5227 144.944 41.5227C145.619 41.5227 146.285 41.3689 146.892 41.0729C147.498 40.777 148.029 40.3467 148.444 39.8147Z" fill="black"/>
<path d="M174.224 49.8618C171.647 48.4673 169.502 46.3918 168.024 43.8618C166.51 41.194 165.74 38.1688 165.794 35.1018C165.74 32.0349 166.51 29.0097 168.024 26.3418C169.491 23.8034 171.638 21.7253 174.224 20.3418C176.995 18.9283 180.062 18.1914 183.174 18.1914C186.285 18.1914 189.352 18.9283 192.124 20.3418C194.701 21.7213 196.837 23.8012 198.284 26.3418C199.786 29.0133 200.549 32.0372 200.494 35.1018C200.543 38.1486 199.784 41.1541 198.294 43.8118C196.838 46.3455 194.705 48.4232 192.134 49.8118C189.368 51.2444 186.298 51.9921 183.184 51.9921C180.069 51.9921 177 51.2444 174.234 49.8118L174.224 49.8618ZM186.634 39.8618C187.62 38.4779 188.103 36.7983 188.004 35.1018C188.107 33.4143 187.623 31.743 186.634 30.3718C186.214 29.8466 185.681 29.4225 185.076 29.1311C184.47 28.8397 183.806 28.6883 183.134 28.6883C182.461 28.6883 181.798 28.8397 181.192 29.1311C180.586 29.4225 180.053 29.8466 179.634 30.3718C178.666 31.7333 178.193 33.3846 178.294 35.0518C178.194 36.7483 178.677 38.4279 179.664 39.8118C180.078 40.3455 180.608 40.7774 181.215 41.0746C181.822 41.3717 182.488 41.5262 183.164 41.5262C183.839 41.5262 184.506 41.3717 185.112 41.0746C185.719 40.7774 186.25 40.3455 186.664 39.8118L186.634 39.8618Z" fill="black"/>
<path d="M211.214 49.8618C208.638 48.4688 206.496 46.3927 205.024 43.8618C203.507 41.1948 202.733 38.1696 202.784 35.1018C202.733 32.034 203.507 29.0089 205.024 26.3418C206.487 23.8041 208.631 21.726 211.214 20.3418C213.985 18.9283 217.052 18.1914 220.164 18.1914C223.275 18.1914 226.342 18.9283 229.114 20.3418C231.694 21.7211 233.833 23.8009 235.284 26.3418C236.782 29.0151 237.544 32.0378 237.494 35.1018C237.539 38.1481 236.78 41.1523 235.294 43.8118C233.834 46.3462 231.698 48.4239 229.124 49.8118C226.358 51.2444 223.288 51.9921 220.174 51.9921C217.059 51.9921 213.989 51.2444 211.224 49.8118L211.214 49.8618ZM223.634 39.8618C224.616 38.4766 225.096 36.7971 224.994 35.1018C225.1 33.4155 224.619 31.7443 223.634 30.3718C223.213 29.8482 222.68 29.4257 222.074 29.1354C221.468 28.845 220.805 28.6943 220.134 28.6943C219.462 28.6943 218.799 28.845 218.193 29.1354C217.587 29.4257 217.054 29.8482 216.634 30.3718C215.666 31.7333 215.193 33.3846 215.294 35.0518C215.191 36.7471 215.671 38.4266 216.654 39.8118C217.069 40.3438 217.6 40.7741 218.206 41.0701C218.813 41.366 219.479 41.5199 220.154 41.5199C220.828 41.5199 221.494 41.366 222.101 41.0701C222.707 40.7741 223.238 40.3438 223.654 39.8118L223.634 39.8618Z" fill="black"/>
<path d="M262.755 18.125V30.125C261.852 29.9797 260.94 29.9028 260.025 29.895C255.805 29.895 253.695 32.245 253.695 36.945V51.445H241.365V18.725H253.095V22.255C255.289 19.5083 258.509 18.1317 262.755 18.125Z" fill="black"/>
</g>
<defs>
<clipPath id="clip0_301_9677">
<rect width="274.41" height="51.09" fill="white" transform="translate(0.294922 0.953125)"/>
</clipPath>
</defs>
</svg>
