<svg width="142" height="146" viewBox="0 0 142 146" fill="none" xmlns="http://www.w3.org/2000/svg">
<path d="M0.277899 89.7242C1.87459 89.0337 3.73021 88.5806 5.84474 88.3649C8.90867 88.0196 11.1958 87.286 12.7062 86.164C13.8714 83.7906 14.4539 77.749 14.4539 68.0394V57.8119L14.5834 51.6625L14.4539 47.1314L14.5834 38.7811L14.3892 17.7436C14.3892 15.3701 14.044 13.8166 13.3535 13.083C12.361 12.0041 9.72859 11.0116 5.45636 10.1054C3.68705 9.71699 2.60821 9.37176 2.21982 9.06968C1.83144 8.72445 1.59409 8.09872 1.50778 7.19249C2.50032 6.97672 3.19078 6.86883 3.57917 6.86883H8.17505L10.5701 6.8041C12.1668 6.8041 13.9361 6.97672 15.878 7.32195C19.8482 7.58087 23.9262 7.71033 28.1121 7.71033C29.3204 7.71033 31.0466 7.6456 33.2906 7.51614C39.2458 7.17091 43.518 6.9983 46.1073 6.9983C51.3289 6.9983 56.2484 7.51614 60.8659 8.55183C65.5265 9.58753 70.3166 11.5079 75.2361 14.3129C78.3 16.0822 81.4287 18.8872 84.6221 22.7279C87.8586 26.5254 90.2968 30.6898 91.9367 35.2209C93.6197 39.7089 94.4612 44.7795 94.4612 50.4326C94.4612 55.4816 93.5333 60.4875 91.6777 65.4502C89.8653 70.4129 87.3192 74.7282 84.0395 78.3963C80.7598 82.0212 77.437 84.7615 74.071 86.6171C70.705 88.4296 65.5697 90.0047 58.665 91.3425C55.8169 91.8603 50.7032 92.1192 43.3239 92.1192C38.4475 92.1192 34.4773 91.9682 31.4134 91.6661C30.2051 91.4935 28.9105 91.4072 27.5295 91.4072C27.3138 91.4072 27.0764 91.4288 26.8175 91.4719L0.407361 91.925L0.277899 91.4072C0.191591 91.1914 0.148438 90.9541 0.148438 90.6952L0.277899 89.7242ZM33.2259 87.1997C36.5055 88.3217 39.8284 88.8827 43.1944 88.8827C47.5529 88.8827 51.8252 88.2138 56.0111 86.8761C60.197 85.4951 63.8867 83.5748 67.08 81.115C70.3166 78.6121 72.9705 75.8071 75.0419 72.7C77.1133 69.5498 78.5805 66.7232 79.4436 64.2203C80.6519 60.5522 81.2561 55.7837 81.2561 49.9148C81.2561 44.3048 80.0693 38.6085 77.6959 32.8259C76.056 28.8126 73.1647 24.9719 69.022 21.3038C64.9223 17.6357 60.0675 14.9602 54.4575 13.2772C48.8475 11.551 42.7844 10.6879 36.2682 10.6879C31.7802 10.6879 28.4574 11.1842 26.2997 12.1768C26.0407 12.4357 25.7818 12.7378 25.5229 13.083C25.264 14.1618 25.1345 15.1544 25.1345 16.0606C25.1345 16.6216 25.1561 17.2905 25.1992 18.0673C25.3287 23.0731 25.3934 27.0864 25.3934 30.1072L25.3287 44.8011C25.3287 66.378 25.7171 78.3963 26.4939 80.8561C27.3138 83.2727 29.5578 85.3872 33.2259 87.1997Z" fill="#F9BA92"/>
<path d="M32.5785 63.6377L32.5138 60.5306C39.2027 60.5306 44.1006 60.358 47.2077 60.0128C48.416 59.8833 49.2575 59.8186 49.7322 59.8186C50.1206 59.8186 50.7032 59.8402 51.4799 59.8833C53.2924 61.3937 54.9754 63.1199 56.5289 65.0618C56.8742 65.4502 57.2625 65.8817 57.6941 66.3564L71.3523 81.4387L73.2942 83.769C76.056 87.0055 78.559 89.7674 80.803 92.0545C83.0901 94.3417 87.5134 99.1102 94.0728 106.36L109.543 123.514C111.054 125.197 112.996 127.29 115.369 129.793L115.434 128.757C115.175 122.758 115.046 119.587 115.046 119.241L115.304 115.358L115.175 109.273V106.489C115.175 104.72 115.024 99.2612 114.722 90.1126C114.679 88.8611 114.506 86.5092 114.204 83.0569C113.902 79.5615 113.751 76.4976 113.751 73.8652C113.751 69.1182 113.47 66.3564 112.909 65.5796C112.521 65.0186 110.687 64.4361 107.407 63.8319C106.631 63.7887 105.422 63.6593 103.782 63.4435C101.84 63.3572 100.697 63.2493 100.352 63.1199C100.006 62.9904 99.6612 62.6236 99.316 62.0194C99.4023 61.329 99.5965 60.6817 99.8985 60.0775C101.064 59.7323 102.207 59.5597 103.329 59.5597C104.538 59.5597 106.026 59.7107 107.796 60.0128C109.608 60.3149 111.226 60.4659 112.65 60.4659C114.636 60.4659 117.721 60.3364 121.907 60.0775C124.28 59.9049 125.92 59.8186 126.827 59.8186H127.927L127.797 61.8252C127.107 62.1273 126.158 62.3215 124.949 62.4078C123.741 62.451 122.619 62.6236 121.583 62.9257C120.03 63.4004 119.102 63.8103 118.8 64.1556C117.764 65.2776 117.246 66.4211 117.246 67.5863L117.958 88.0412L118.476 97.4272L118.412 100.146L118.8 113.157C119.059 122.046 119.188 129.771 119.188 136.33C119.188 137.754 119.102 140.84 118.929 145.587L115.887 145.846C114.377 144.12 109.177 138.682 100.287 129.534C98.2155 127.419 96.813 125.93 96.0794 125.067L90.5126 118.659C88.3549 116.285 86.9524 114.775 86.3051 114.128C85.6578 113.48 85.1831 113.006 84.881 112.704C80.1772 107.353 74.071 100.664 66.5622 92.6371C64.534 90.4794 61.5563 87.1134 57.6293 82.5391C55.1696 79.6478 53.616 77.8785 52.9687 77.2312C52.3214 76.5839 51.4368 75.8502 50.3148 75.0303L50.1206 77.2312C50.1206 85.6462 50.3363 97.2545 50.7679 112.056L51.221 133.482C51.2642 135.295 51.372 137.042 51.5447 138.725L53.8102 139.243C57.9098 139.632 61.9447 140.214 65.9149 140.991C66.217 141.25 66.4759 141.444 66.6917 141.574L66.6269 144.033C65.9365 144.249 65.3755 144.357 64.9439 144.357C64.4692 144.357 63.8867 144.314 63.1962 144.227C58.924 143.882 53.7239 143.71 47.5961 143.71C43.2807 143.71 39.4832 143.818 36.2035 144.033L35.2972 144.098C34.9089 144.098 34.3479 144.055 33.6142 143.969L33.5495 142.027L35.2325 141.25L38.2749 140.797C40.9935 140.408 42.9786 139.977 44.2301 139.502C45.05 139.2 45.7189 138.747 46.2367 138.143C46.7114 135.165 46.9488 130.807 46.9488 125.067C46.9488 122.392 46.884 117.494 46.7546 110.373V101.57L46.6251 83.1864C46.5388 74.9872 46.2583 70.1539 45.7836 68.6867C45.5247 67.9099 44.9853 67.2195 44.1654 66.6153C42.5255 65.4502 40.3678 64.7166 37.6923 64.4145C35.0599 64.1124 33.3553 63.8535 32.5785 63.6377Z" fill="#F9BA92"/>
<path d="M135.718 43.2708C133.058 47.9356 128.654 51.3528 123.475 52.7707C118.296 54.1886 112.766 53.4911 108.101 50.8315C103.436 48.1719 100.019 43.7682 98.6012 38.5891C97.1833 33.41 97.8809 27.8798 100.54 23.215C102.496 19.7886 105.411 17.0087 108.926 15.2171C112.441 13.4256 116.403 12.7005 120.325 13.1311L120.708 14.0588L122.393 18.1327C119.016 17.175 115.414 17.3744 112.163 18.6991C108.911 20.0238 106.196 22.3978 104.449 25.4434C100.148 32.987 102.786 42.6221 110.33 46.9229C117.873 51.2238 127.508 48.5859 131.809 41.0424C133.54 37.9877 134.2 34.4419 133.684 30.969C133.167 27.496 131.505 24.2955 128.96 21.8764L134.318 21.1089C136.686 24.2644 138.08 28.0432 138.329 31.9807C138.577 35.9181 137.67 39.8424 135.718 43.2708ZM127.043 17.6086L141.148 15.5775L140.705 7.27121L128.979 0.585938L121.606 4.43535L127.043 17.6086Z" fill="#F9BA92"/>
</svg>
